<svg width="246" height="64" viewBox="0 0 246 64" fill="none" xmlns="http://www.w3.org/2000/svg">
  <g stroke="#211D2C" stroke-width="7" stroke-linecap="round" stroke-linejoin="round">
    <path d="M12 8V45C12 52 16 56 23 56"/>
    <path d="M52 22C41 22 34 29 34 39C34 49 41 56 52 56C63 56 70 49 70 39C70 29 63 22 52 22Z"/>
    <path d="M82 39C82 29 90 22 101 22C112 22 119 29 119 39H82C82 49 90 56 101 56C108 56 114 53 118 49"/>
    <path d="M137 56V23M137 35C137 27 142 22 150 22C159 22 164 28 164 37V56M164 35C164 27 170 22 178 22C187 22 192 28 192 38V56"/>
    <path d="M205 39C205 29 213 22 224 22C235 22 242 29 242 39H205C205 49 213 56 224 56C231 56 237 53 241 49"/>
  </g>
</svg>
