<svg width="196" height="64" viewBox="0 0 196 64" fill="none" xmlns="http://www.w3.org/2000/svg">
  <g fill="#191821" transform="translate(2 56) scale(0.07 -0.07)">
    <path d="M184 0Q138 0 109 24Q80 48 80 100V710H164V107Q164 74 197 74H243V0Z"/>
    <path d="M287 -12Q214 -12 159 22Q104 56 74 118.5Q44 181 44 265Q44 350 74 412Q104 474 159 508Q214 542 287 542Q360 542 414.5 508Q469 474 499 412Q529 350 529 265Q529 181 499 118.5Q469 56 414.5 22Q360 -12 287 -12ZM287 68Q360 68 400.5 120.5Q441 173 441 265Q441 357 400.5 409.5Q360 462 287 462Q214 462 173 409.5Q132 357 132 265Q132 173 173 120.5Q214 68 287 68Z" transform="translate(245 0)"/>
    <path d="M287 -12Q212 -12 157.5 22Q103 56 73.5 118.5Q44 181 44 265Q44 349 73.5 411Q103 473 156.5 507.5Q210 542 283 542Q352 542 405 509.5Q458 477 487.5 415Q517 353 517 264V239H132Q137 154 177.5 111Q218 68 287 68Q339 68 372.5 92.5Q406 117 419 157L509 150Q488 79 429.5 33.5Q371 -12 287 -12ZM132 313H425Q419 390 380.5 426Q342 462 283 462Q222 462 182.5 424.5Q143 387 132 313Z" transform="translate(796 0)"/>
    <path d="M80 0V530H157L159 437Q179 486 218 514Q257 542 308 542Q368 542 409 513Q450 484 467 431Q484 484 524 513Q564 542 622 542Q707 542 752 489.5Q797 437 797 341V0H713V323Q713 468 602 468Q547 468 513.5 428Q480 388 480 317V0H396V317Q396 388 371 428Q346 468 287 468Q232 468 198 428Q164 388 164 317V0Z" transform="translate(1335 0)"/>
    <path d="M287 -12Q212 -12 157.5 22Q103 56 73.5 118.5Q44 181 44 265Q44 349 73.5 411Q103 473 156.5 507.5Q210 542 283 542Q352 542 405 509.5Q458 477 487.5 415Q517 353 517 264V239H132Q137 154 177.5 111Q218 68 287 68Q339 68 372.5 92.5Q406 117 419 157L509 150Q488 79 429.5 33.5Q371 -12 287 -12ZM132 313H425Q419 390 380.5 426Q342 462 283 462Q222 462 182.5 424.5Q143 387 132 313Z" transform="translate(2190 0)"/>
  </g>
</svg>
